<?xml version="1.0" encoding="UTF-8" standalone="no"?>
<!-- Created with Inkscape (http://www.inkscape.org/) -->

<svg
   xmlns:dc="http://purl.org/dc/elements/1.1/"
   xmlns:cc="http://creativecommons.org/ns#"
   xmlns:rdf="http://www.w3.org/1999/02/22-rdf-syntax-ns#"
   xmlns:svg="http://www.w3.org/2000/svg"
   xmlns="http://www.w3.org/2000/svg"
   xmlns:sodipodi="http://sodipodi.sourceforge.net/DTD/sodipodi-0.dtd"
   xmlns:inkscape="http://www.inkscape.org/namespaces/inkscape"
   id="svg3199"
   width="24"
   height="22"
   version="1.1"
   sodipodi:docname="ubuntu-checkbox-off-focused.svg"
   inkscape:version="0.92.3 (2405546, 2018-03-11)">
  <sodipodi:namedview
     pagecolor="#ffffff"
     bordercolor="#666666"
     borderopacity="1"
     objecttolerance="10"
     gridtolerance="10"
     guidetolerance="10"
     inkscape:pageopacity="0"
     inkscape:pageshadow="2"
     inkscape:window-width="640"
     inkscape:window-height="480"
     id="namedview16"
     showgrid="false"
     inkscape:zoom="13"
     inkscape:cx="-3.1538462"
     inkscape:cy="11"
     inkscape:current-layer="svg3199" />
  <defs
     id="defs3201">
    <linearGradient
       id="linearGradient11811"
       x1="63.569"
       x2="63.569"
       y1="127.16"
       y2="152.66"
       gradientTransform="matrix(1.949642,0,0,0.65553174,-97.953704,-79.778434)"
       gradientUnits="userSpaceOnUse">
      <stop
         id="stop5583-0-92-8-0-7-6-5-1"
         style="stop-color:#4c4c45"
         offset="0" />
      <stop
         id="stop5585-4-7-2-7-9-9-92-0"
         style="stop-color:#3f3f39"
         offset=".4" />
      <stop
         id="stop5587-6-7-2-0-3-1-21-5"
         style="stop-color:32322d"
         offset="1" />
    </linearGradient>
  </defs>
  <metadata
     id="metadata3204">
    <rdf:RDF>
      <cc:Work
         rdf:about="">
        <dc:format>image/svg+xml</dc:format>
        <dc:type
           rdf:resource="http://purl.org/dc/dcmitype/StillImage" />
        <dc:title />
      </cc:Work>
    </rdf:RDF>
  </metadata>
  <rect
     id="rect11803"
     x="0.49941984"
     y="2.4949591"
     width="19.008976"
     height="19.010616"
     rx="2.8382924"
     ry="2.8843918"
     style="color:#000000;fill:url(#linearGradient11811);stroke:#3431b9;stroke-width:1.000018;stroke-linejoin:round;stroke-opacity:1" />
  <path
     id="path11809"
     d="M 1.0038374,6.5360016 V 5.4873552 c 0,-1.3988553 1.0972669,-2.490486 2.4632328,-2.490486 H 16.534303 c 1.365925,0 2.430335,1.0917392 2.430335,2.490486 v 1.0486464 c 0,-1.3988553 -1.064424,-2.490486 -2.430335,-2.490486 H 3.4670702 c -1.3659251,0 -2.4632328,1.0917392 -2.4632328,2.490486 z"
     style="color:#000000;text-indent:0;text-transform:none;opacity:0.15;fill:#ffffff;stroke-width:1.35789919"
     inkscape:connector-curvature="0" />
  <path
     id="path11867"
     d="m 1.0038374,16.458068 v 1.048646 c 0,1.398855 1.0972669,2.490486 2.4632328,2.490486 H 16.534303 c 1.365925,0 2.430335,-1.091739 2.430335,-2.490486 v -1.048646 c 0,1.398855 -1.064424,2.490486 -2.430335,2.490486 H 3.4670702 c -1.3659251,0 -2.4632328,-1.09174 -2.4632328,-2.490486 z"
     style="color:#000000;text-indent:0;text-transform:none;opacity:0.15;fill:#ffffff;stroke-width:1.35789919"
     inkscape:connector-curvature="0" />
  <path
     id="path11869"
     d="m 1.0038374,17.457734 v 1.048647 c 0,1.398855 0.8762964,2.490486 2.2421944,2.490486 H 16.932471 c 1.365925,0 2.032575,-1.091739 2.032575,-2.490486 v -1.048647 c 0,1.398856 -1.064424,2.490486 -2.430335,2.490486 H 3.467478 c -1.3659251,0 -2.4632328,-1.091739 -2.4632328,-2.490486 z"
     style="color:#000000;text-indent:0;text-transform:none;opacity:0.15;fill-opacity:0.85253003;stroke-width:1.35789919"
     inkscape:connector-curvature="0" />
  <rect
     style="color:#000000;fill:none"
     height="21.944"
     width="21.944"
     y="0.22001709"
     x="-0.20001221"
     id="rect17347" />
</svg>
